# Blender v2.79 (sub 0) OBJ File: 'tiles.blend'
# www.blender.org
o 11
v -1.000000 0.000000 0.000000
v 1.000000 1.000000 1.000000
v -1.000000 1.000000 -1.000000
v 1.000000 1.000000 -1.000000
v -1.000000 1.000000 0.000000
v 0.000000 1.000000 1.000000
v 1.000000 1.000000 0.000000
v 0.000000 1.000000 -1.000000
v 0.000000 1.000000 0.000000
v 0.000000 0.000000 1.000000
v 0.000000 0.000000 0.000000
v -1.000000 0.000000 1.000000
vt 0.999900 0.000100
vt 0.000100 0.999900
vt 0.000100 0.000100
vt 0.999900 0.000100
vt 0.000100 0.999900
vt 0.000100 0.000100
vt 0.000100 0.999900
vt 0.999900 0.000100
vt 0.999900 0.999900
vt 0.999900 0.000100
vt 0.000100 0.999900
vt 0.000100 0.000100
vt 0.999900 0.000100
vt 0.999900 0.999900
vt 0.000100 0.000100
vt 0.999900 0.999900
vt 0.000100 0.999900
vt 0.999900 0.999900
vt 0.999900 0.999900
vt 0.000100 0.000100
vt 0.999900 0.999900
vt 0.000100 0.000100
vn 0.0000 1.0000 0.0000
vn 0.0000 0.0000 1.0000
vn -1.0000 0.0000 0.0000
s 1
f 7/1/1 8/2/1 9/3/1
f 9/4/1 3/5/1 5/6/1
f 5/7/2 11/8/2 9/9/2
f 2/10/1 9/11/1 6/12/1
f 9/11/3 10/13/3 6/14/3
f 12/15/1 11/16/1 1/17/1
f 7/1/1 4/18/1 8/2/1
f 9/4/1 8/19/1 3/5/1
f 5/7/2 1/20/2 11/8/2
f 2/10/1 7/21/1 9/11/1
f 9/11/3 11/22/3 10/13/3
f 12/15/1 10/13/1 11/16/1
o 13
v -1.000000 1.000000 1.000000
v 1.000000 1.000000 1.000000
v -1.000000 1.000000 -1.000000
v 1.000000 0.000000 0.000000
v -1.000000 1.000000 0.000000
v 0.000000 1.000000 1.000000
v 1.000000 1.000000 0.000000
v 0.000000 1.000000 -1.000000
v 0.000000 1.000000 0.000000
v 0.000000 0.000000 -1.000000
v 0.000000 0.000000 0.000000
v 1.000000 0.000000 -1.000000
vt 0.000100 0.999900
vt 0.999900 0.000100
vt 0.999900 0.999900
vt 0.999900 0.000100
vt 0.000100 0.999900
vt 0.000100 0.000100
vt 0.999900 0.000100
vt 0.000100 0.999900
vt 0.000100 0.000100
vt 0.999900 0.000100
vt 0.000100 0.999900
vt 0.000100 0.000100
vt 0.999900 0.000100
vt 0.999900 0.999900
vt 0.000100 0.999900
vt 0.999900 0.000100
vt 0.999900 0.999900
vt 0.000100 0.000100
vt 0.999900 0.999900
vt 0.000100 0.000100
vn 0.0000 0.0000 -1.0000
vn 0.0000 1.0000 0.0000
vn 1.0000 0.0000 0.0000
s 1
f 19/23/4 23/24/4 21/25/4
f 21/26/5 15/27/5 17/28/5
f 18/29/5 17/30/5 13/31/5
f 14/32/5 21/33/5 18/34/5
f 21/33/6 22/35/6 20/36/6
f 22/37/5 16/38/5 24/39/5
f 19/23/4 16/40/4 23/24/4
f 21/26/5 20/36/5 15/27/5
f 18/29/5 21/25/5 17/30/5
f 14/32/5 19/41/5 21/33/5
f 21/33/6 23/42/6 22/35/6
f 22/37/5 23/42/5 16/38/5
o 14
v -1.000000 1.000000 1.000000
v 1.000000 1.000000 1.000000
v -1.000000 0.000000 0.000000
v 1.000000 1.000000 -1.000000
v -1.000000 1.000000 0.000000
v 0.000000 1.000000 1.000000
v 1.000000 1.000000 0.000000
v 0.000000 1.000000 -1.000000
v 0.000000 1.000000 0.000000
v 0.000000 0.000000 -1.000000
v 0.000000 0.000000 0.000000
v -1.000000 0.000000 -1.000000
vt 0.999900 0.000100
vt 0.000100 0.999900
vt 0.000100 0.000100
vt 0.000100 0.999900
vt 0.999900 0.000100
vt 0.999900 0.999900
vt 0.999900 0.000100
vt 0.000100 0.999900
vt 0.000100 0.000100
vt 0.999900 0.000100
vt 0.000100 0.000100
vt 0.999900 0.000100
vt 0.999900 0.999900
vt 0.000100 0.999900
vt 0.000100 0.000100
vt 0.999900 0.999900
vt 0.000100 0.000100
vt 0.999900 0.999900
vt 0.000100 0.000100
vt 0.999900 0.999900
vn 0.0000 1.0000 0.0000
vn 0.0000 0.0000 -1.0000
vn -1.0000 0.0000 0.0000
s 1
f 31/43/7 32/44/7 33/45/7
f 33/46/8 27/47/8 29/48/8
f 30/49/7 29/50/7 25/51/7
f 26/52/7 33/46/7 30/53/7
f 32/44/9 35/54/9 33/55/9
f 35/54/7 36/56/7 27/57/7
f 31/43/7 28/58/7 32/44/7
f 33/46/8 35/59/8 27/47/8
f 30/49/7 33/55/7 29/50/7
f 26/52/7 31/60/7 33/46/7
f 32/44/9 34/61/9 35/54/9
f 35/54/7 34/62/7 36/56/7
o 7
v -1.000000 1.000000 1.000000
v 0.000000 0.000000 1.000000
v -1.000000 1.000000 -1.000000
v 1.000000 1.000000 -1.000000
v -1.000000 1.000000 0.000000
v 0.000000 1.000000 1.000000
v 1.000000 1.000000 0.000000
v 0.000000 1.000000 -1.000000
v 0.000000 1.000000 0.000000
v 1.000000 0.000000 0.000000
v 0.000000 0.000000 0.000000
v 1.000000 0.000000 1.000000
vt 0.999900 0.000100
vt 0.000100 0.999900
vt 0.000100 0.000100
vt 0.999900 0.000100
vt 0.000100 0.999900
vt 0.000100 0.000100
vt 0.999900 0.000100
vt 0.000100 0.999900
vt 0.000100 0.000100
vt 0.000100 0.999900
vt 0.999900 0.000100
vt 0.999900 0.999900
vt 0.000100 0.999900
vt 0.999900 0.000100
vt 0.999900 0.999900
vt 0.999900 0.999900
vt 0.000100 0.000100
vt 0.999900 0.000100
vt 0.999900 0.999900
vt 0.999900 0.999900
vt 0.000100 0.000100
vt 0.000100 0.999900
vn 0.0000 1.0000 0.0000
vn 0.0000 0.0000 1.0000
vn 1.0000 0.0000 0.0000
s 1
f 43/63/10 44/64/10 45/65/10
f 45/66/10 39/67/10 41/68/10
f 42/69/10 41/70/10 37/71/10
f 45/72/11 46/73/11 43/74/11
f 42/75/12 47/76/12 45/77/12
f 46/78/10 38/79/10 48/80/10
f 43/63/10 40/81/10 44/64/10
f 45/66/10 44/82/10 39/67/10
f 42/69/10 45/77/10 41/70/10
f 45/72/11 47/83/11 46/73/11
f 42/75/12 38/79/12 47/76/12
f 46/78/10 47/84/10 38/79/10
o 0
v -1.000000 0.000000 1.000000
v 1.000000 0.000000 1.000000
v -1.000000 0.000000 -1.000000
v 1.000000 0.000000 -1.000000
vt 1.999800 0.000200
vt 0.000200 1.999800
vt 0.000200 0.000200
vt 1.999800 1.999800
vn 0.0000 1.0000 0.0000
s 1
f 50/85/13 51/86/13 49/87/13
f 50/85/13 52/88/13 51/86/13
o 15
v -1.000000 1.000000 1.000000
v 1.000000 1.000000 1.000000
v -1.000000 1.000000 -1.000000
v 1.000000 1.000000 -1.000000
vt 1.999800 0.000200
vt 0.000200 1.999800
vt 0.000200 0.000200
vt 1.999800 1.999800
vn 0.0000 1.0000 0.0000
s 1
f 54/89/14 55/90/14 53/91/14
f 54/89/14 56/92/14 55/90/14
o 4
v -1.000000 1.000000 0.000000
v 1.000000 0.000000 1.000000
v -1.000000 0.000000 -1.000000
v 1.000000 0.000000 -1.000000
v -1.000000 0.000000 0.000000
v 0.000000 0.000000 1.000000
v 1.000000 0.000000 0.000000
v 0.000000 0.000000 -1.000000
v 0.000000 0.000000 0.000000
v 0.000000 1.000000 1.000000
v 0.000000 1.000000 0.000000
v -1.000000 1.000000 1.000000
vt 0.999900 0.000100
vt 0.000100 0.999900
vt 0.000100 0.000100
vt 0.999900 0.000100
vt 0.000100 0.999900
vt 0.000100 0.000100
vt 0.999900 0.000100
vt 0.000100 0.999900
vt 0.999900 0.000100
vt 0.000100 0.999900
vt 0.000100 0.000100
vt 0.000100 0.999900
vt 0.000100 0.000100
vt 0.999900 0.999900
vt 0.000100 0.999900
vt 0.999900 0.999900
vt 0.999900 0.999900
vt 0.999900 0.999900
vt 0.999900 0.999900
vt 0.999900 0.000100
vn 0.0000 1.0000 0.0000
vn 0.0000 0.0000 -1.0000
vn 1.0000 0.0000 0.0000
s 1
f 63/93/15 64/94/15 65/95/15
f 65/96/15 59/97/15 61/98/15
f 61/99/16 67/100/16 65/95/16
f 58/101/15 65/102/15 62/103/15
f 65/96/17 66/104/17 62/103/17
f 68/105/15 67/106/15 57/107/15
f 63/93/15 60/108/15 64/94/15
f 65/96/15 64/109/15 59/97/15
f 61/99/16 57/110/16 67/100/16
f 58/101/15 63/111/15 65/102/15
f 65/96/17 67/106/17 66/104/17
f 68/105/15 66/112/15 67/106/15
o 8
v -1.000000 0.000000 1.000000
v 0.000000 1.000000 1.000000
v -1.000000 0.000000 -1.000000
v 1.000000 0.000000 -1.000000
v -1.000000 0.000000 0.000000
v 0.000000 0.000000 1.000000
v 1.000000 0.000000 0.000000
v 0.000000 0.000000 -1.000000
v 0.000000 0.000000 0.000000
v 1.000000 1.000000 0.000000
v 0.000000 1.000000 0.000000
v 1.000000 1.000000 1.000000
vt 0.999900 0.000100
vt 0.000100 0.999900
vt 0.000100 0.000100
vt 0.999900 0.000100
vt 0.000100 0.999900
vt 0.000100 0.000100
vt 0.999900 0.000100
vt 0.000100 0.999900
vt 0.000100 0.000100
vt 0.000100 0.999900
vt 0.000100 0.000100
vt 0.000100 0.999900
vt 0.999900 0.999900
vt 0.000100 0.000100
vt 0.999900 0.000100
vt 0.999900 0.999900
vt 0.999900 0.999900
vt 0.999900 0.999900
vt 0.999900 0.999900
vt 0.999900 0.999900
vn 0.0000 1.0000 0.0000
vn 0.0000 0.0000 -1.0000
vn -1.0000 0.0000 0.0000
s 1
f 75/113/18 76/114/18 77/115/18
f 77/116/18 71/117/18 73/118/18
f 74/119/18 73/120/18 69/121/18
f 77/116/19 78/122/19 75/123/19
f 74/119/20 79/124/20 77/115/20
f 78/125/18 70/126/18 80/127/18
f 75/113/18 72/128/18 76/114/18
f 77/116/18 76/129/18 71/117/18
f 74/119/18 77/130/18 73/120/18
f 77/116/19 79/131/19 78/122/19
f 74/119/20 70/132/20 79/124/20
f 78/125/18 79/124/18 70/126/18
o 2
v -1.000000 0.000000 1.000000
v 1.000000 0.000000 1.000000
v -1.000000 0.000000 -1.000000
v 1.000000 1.000000 0.000000
v -1.000000 0.000000 0.000000
v 0.000000 0.000000 1.000000
v 1.000000 0.000000 0.000000
v 0.000000 0.000000 -1.000000
v 0.000000 0.000000 0.000000
v 0.000000 1.000000 -1.000000
v 0.000000 1.000000 0.000000
v 1.000000 1.000000 -1.000000
vt 0.999900 0.000100
vt 0.000100 0.999900
vt 0.000100 0.000100
vt 0.999900 0.000100
vt 0.000100 0.999900
vt 0.000100 0.000100
vt 0.999900 0.000100
vt 0.000100 0.999900
vt 0.000100 0.000100
vt 0.999900 0.000100
vt 0.000100 0.999900
vt 0.000100 0.000100
vt 0.000100 0.999900
vt 0.000100 0.000100
vt 0.999900 0.000100
vt 0.999900 0.999900
vt 0.999900 0.999900
vt 0.999900 0.999900
vt 0.999900 0.999900
vt 0.999900 0.999900
vt 0.999900 0.999900
vt 0.000100 0.000100
vn 0.0000 0.0000 1.0000
vn 0.0000 1.0000 0.0000
vn -1.0000 0.0000 0.0000
s 1
f 87/133/21 91/134/21 89/135/21
f 89/136/22 83/137/22 85/138/22
f 86/139/22 85/140/22 81/141/22
f 82/142/22 89/143/22 86/144/22
f 89/136/23 90/145/23 88/146/23
f 90/145/22 84/147/22 92/148/22
f 87/133/21 84/149/21 91/134/21
f 89/136/22 88/150/22 83/137/22
f 86/139/22 89/151/22 85/140/22
f 82/142/22 87/152/22 89/143/22
f 89/136/23 91/153/23 90/145/23
f 90/145/22 91/154/22 84/147/22
o 1
v -1.000000 0.000000 1.000000
v 1.000000 0.000000 1.000000
v -1.000000 1.000000 0.000000
v 1.000000 0.000000 -1.000000
v -1.000000 0.000000 0.000000
v 0.000000 0.000000 1.000000
v 1.000000 0.000000 0.000000
v 0.000000 0.000000 -1.000000
v 0.000000 0.000000 0.000000
v 0.000000 1.000000 -1.000000
v 0.000000 1.000000 0.000000
v -1.000000 1.000000 -1.000000
vt 0.999900 0.000100
vt 0.000100 0.999900
vt 0.000100 0.000100
vt 0.999900 0.000100
vt 0.000100 0.999900
vt 0.000100 0.000100
vt 0.999900 0.000100
vt 0.000100 0.999900
vt 0.000100 0.000100
vt 0.999900 0.000100
vt 0.000100 0.999900
vt 0.000100 0.000100
vt 0.999900 0.000100
vt 0.000100 0.999900
vt 0.999900 0.000100
vt 0.000100 0.999900
vt 0.000100 0.000100
vt 0.999900 0.999900
vt 0.999900 0.999900
vt 0.999900 0.999900
vt 0.999900 0.999900
vt 0.999900 0.999900
vn 0.0000 1.0000 0.0000
vn 0.0000 0.0000 1.0000
vn 1.0000 0.0000 0.0000
s 1
f 99/155/24 100/156/24 101/157/24
f 101/158/25 95/159/25 97/160/25
f 98/161/24 97/162/24 93/163/24
f 94/164/24 101/165/24 98/166/24
f 100/167/26 103/168/26 101/157/26
f 103/169/24 104/170/24 95/171/24
f 99/155/24 96/172/24 100/156/24
f 101/158/25 103/173/25 95/159/25
f 98/161/24 101/174/24 97/162/24
f 94/164/24 99/175/24 101/165/24
f 100/167/26 102/176/26 103/168/26
f 103/169/24 102/176/24 104/170/24
o 3
v 1.000000 0.000000 1.000000
v -1.000000 0.000000 1.000000
v -1.000000 1.000000 0.000000
v 1.000000 1.000000 0.000000
v -1.000000 0.000000 0.000000
v 1.000000 0.000000 0.000000
v -1.000000 1.000000 -1.000000
v 1.000000 1.000000 -1.000000
vt 0.000141 1.000000
vt 1.999859 0.000141
vt 1.999859 1.000000
vt 0.000141 1.000000
vt 1.999859 0.000141
vt 1.999859 1.000000
vt 1.999859 0.000141
vt 0.000141 1.000000
vt 0.000141 0.000141
vt 0.000141 0.000141
vt 0.000141 0.000141
vt 1.999859 1.000000
vn 0.0000 0.0000 1.0000
vn 0.0000 1.0000 0.0000
s 1
f 107/177/27 110/178/27 108/179/27
f 109/180/28 105/181/28 110/182/28
f 108/183/28 111/184/28 107/185/28
f 107/177/27 109/186/27 110/178/27
f 109/180/28 106/187/28 105/181/28
f 108/183/28 112/188/28 111/184/28
o 12
v 1.000000 1.000000 0.000000
v -1.000000 1.000000 0.000000
v -1.000000 0.000000 -1.000000
v 1.000000 0.000000 -1.000000
v -1.000000 0.000000 0.000000
v 1.000000 0.000000 0.000000
v 1.000000 1.000000 1.000000
v -1.000000 1.000000 1.000000
vt 0.000141 1.000000
vt 1.999859 0.000141
vt 1.999859 1.000000
vt 1.999858 0.000071
vt 0.000141 0.999929
vt 0.000141 0.000071
vt 0.000141 1.000000
vt 1.999859 0.000141
vt 1.999859 1.000000
vt 0.000141 0.000141
vt 1.999859 0.999929
vt 0.000141 0.000141
vn 0.0000 1.0000 0.0000
vn 0.0000 0.0000 -1.0000
s 1
f 115/189/29 118/190/29 116/191/29
f 117/192/30 113/193/30 118/194/30
f 114/195/29 119/196/29 113/197/29
f 115/189/29 117/198/29 118/190/29
f 117/192/30 114/199/30 113/193/30
f 114/195/29 120/200/29 119/196/29
o 10
v 0.000000 1.000000 1.000000
v -0.000000 1.000000 -1.000000
v -1.000000 -0.000000 1.000000
v -1.000000 -0.000000 -1.000000
v 0.000000 0.000000 -1.000000
v 0.000000 0.000000 1.000000
v 1.000000 1.000000 1.000000
v 1.000000 1.000000 -1.000000
vt 0.000141 0.999929
vt 1.999858 0.000071
vt 1.999859 0.999929
vt 0.999929 1.999859
vt 0.000071 0.000141
vt 0.999929 0.000141
vt 0.000071 0.000142
vt 0.999929 1.999858
vt 0.000071 1.999859
vt 0.000141 0.000071
vt 0.000071 1.999859
vt 0.999929 0.000141
vn -1.0000 -0.0000 0.0000
vn -0.0000 1.0000 0.0000
s 1
f 122/201/31 126/202/31 121/203/31
f 125/204/32 123/205/32 126/206/32
f 121/207/32 128/208/32 122/209/32
f 122/201/31 125/210/31 126/202/31
f 125/204/32 124/211/32 123/205/32
f 121/207/32 127/212/32 128/208/32
o 5
v 1.000000 0.000000 1.000000
v 1.000000 0.000000 -1.000000
v 0.000000 1.000000 1.000000
v 0.000000 1.000000 -1.000000
v 0.000000 0.000000 -1.000000
v 0.000000 0.000000 1.000000
v -1.000000 1.000000 1.000000
v -1.000000 1.000000 -1.000000
vt -0.000141 1.999859
vt -1.000000 0.000141
vt -0.000141 0.000141
vt 1.999859 0.000141
vt 0.000141 1.000000
vt 0.000141 0.000141
vt -0.000142 1.999859
vt -1.000000 0.000141
vt -0.000141 0.000141
vt -1.000000 1.999859
vt 1.999859 1.000000
vt -1.000000 1.999859
vn 0.0000 1.0000 0.0000
vn 1.0000 0.0000 0.0000
s 1
f 130/213/33 134/214/33 129/215/33
f 133/216/34 131/217/34 134/218/34
f 132/219/33 135/220/33 131/221/33
f 130/213/33 133/222/33 134/214/33
f 133/216/34 132/223/34 131/217/34
f 132/219/33 136/224/33 135/220/33
